<?xml version="1.0" encoding="UTF-8" standalone="no"?>
<svg width="37px" height="11px" viewBox="0 0 37 11" version="1.1" xmlns="http://www.w3.org/2000/svg" xmlns:xlink="http://www.w3.org/1999/xlink">
    <!-- Generator: Sketch 3.8.3 (29802) - http://www.bohemiancoding.com/sketch -->
    <title>LOGO@2x</title>
    <desc>Created with Sketch.</desc>
    <defs></defs>
    <g id="Page-1" stroke="none" stroke-width="1" fill="none" fill-rule="evenodd">
        <g id="ecom-mobile" transform="translate(-173.000000, -23.000000)" fill="#020D18">
            <g id="MOBILE-NAV@2x">
                <path d="M210,23 L199.401042,23 L199.401042,33.8842105 L201.867708,33.8842105 L201.867708,29.7929825 L206.415625,29.7929825 L206.415625,27.8245614 L201.867708,27.8245614 L201.867708,24.9684211 L210,24.9684211 L210,23.1157895 L210,23 Z M192.617708,34 L192.617708,29.2912281 L197.165625,29.2912281 L197.165625,28.0561404 L192.617708,28.0561404 L192.617708,23.3859649 L191.384375,23.3859649 L191.384375,28.0561404 L186.797917,28.0561404 L186.797917,29.2912281 L191.384375,29.2912281 L191.384375,34 L192.617708,34 Z M175.466667,29.9087719 L177.933333,29.9087719 L182.25,34 L185.834375,34 L180.901042,29.9087719 L182.25,29.9087719 C183.046532,29.9087719 183.656769,29.7286568 184.080729,29.3684211 C184.50469,29.0081853 184.716667,28.4935706 184.716667,27.8245614 L184.716667,25.2385965 C184.716667,24.5438562 184.50469,24.0163761 184.080729,23.6561404 C183.656769,23.2959046 183.046532,23.1157895 182.25,23.1157895 L173,23.1157895 L173,34 L175.466667,34 L175.466667,29.9087719 Z M175.466667,24.9684211 L181.132292,24.9684211 C181.389237,24.9684211 181.581944,24.9748537 181.710417,24.9877193 C181.83889,25.0005849 181.941666,25.0456136 182.01875,25.122807 C182.121528,25.1742693 182.205034,25.2643268 182.269271,25.3929825 C182.333507,25.5216381 182.365625,25.6760225 182.365625,25.8561404 L182.365625,27.2070175 C182.365625,27.3871354 182.333507,27.5415198 182.269271,27.6701754 C182.205034,27.7988311 182.121528,27.8888886 182.01875,27.9403509 C181.890277,28.0175442 181.755383,28.0561404 181.614062,28.0561404 L181.132292,28.0561404 L175.466667,28.0561404 L175.466667,24.9684211 Z" id="LOGO@2x"></path>
            </g>
        </g>
    </g>
</svg>